<svg xmlns="http://www.w3.org/2000/svg" viewBox="0 0 32 32" width="32" height="32">
  <rect width="32" height="32" fill="#030712"/>
  <!-- Fox ears -->
  <rect x="4" y="2" width="4" height="6" fill="#f97316"/>
  <rect x="6" y="0" width="2" height="4" fill="#f97316"/>
  <rect x="24" y="2" width="4" height="6" fill="#f97316"/>
  <rect x="24" y="0" width="2" height="4" fill="#f97316"/>
  <!-- Head -->
  <rect x="4" y="6" width="24" height="14" fill="#f97316"/>
  <rect x="6" y="8" width="20" height="10" fill="#fdba74"/>
  <!-- LED eyes -->
  <rect x="8" y="10" width="4" height="4" fill="#22c55e"/>
  <rect x="20" y="10" width="4" height="4" fill="#22c55e"/>
  <!-- Muzzle -->
  <rect x="12" y="14" width="8" height="4" fill="#ffffff"/>
  <rect x="14" y="14" width="4" height="2" fill="#1e1b4b"/>
  <!-- Body -->
  <rect x="6" y="20" width="20" height="10" fill="#6366f1"/>
  <!-- Chest plate -->
  <rect x="12" y="22" width="8" height="4" fill="#818cf8"/>
  <!-- Paws -->
  <rect x="6" y="28" width="6" height="4" fill="#a5b4fc"/>
  <rect x="20" y="28" width="6" height="4" fill="#a5b4fc"/>
</svg>
